<svg height="81pt" preserveAspectRatio="xMidYMid meet" viewBox="0 0 122 81" width="122pt" xmlns="http://www.w3.org/2000/svg"><g transform="matrix(.1 0 0 -.1 0 81)"><path d="m460 703c1-10 7-29 15-43 23-40 18-49-49-82l-64-31 14-41c27-76 54-192 60-264 7-75 5-89-11-83-5 2-33 10-61 17l-51 14-129-60-129-60h274 274l-6 148c-5 142-27 285-61 397-9 28-16 55-16 60 0 9 569 9 578 1 1-2-2-30-6-64-7-47-6-62 4-66 14-5 18 11 29 117l6 57h-335c-313 0-336-1-336-17z"/><path d="m584 523c8-16 29-42 48-59l33-32 196-7c280-10 304-22 41-21-171 1-222-2-222-11 0-10 57-13 250-13 138 0 250 4 250 8s-20 28-45 52-50 59-56 77l-11 33h-249-250z"/><path d="m1070 344c-11-29-13-123-4-213l7-61h34c28 0 34 3 29 16-4 9-11 62-16 118-14 138-19 166-31 166-5 0-14-12-19-26z"/><path d="m640 336c0-11 9-16 31-16 30 0 31-2 27-35-2-20 0-35 7-35 5 0 10 17 10 37 0 36 2 38 33 38 32 0 33-2 32-35-4-75-1-90 19-90 16 0 18 9 20 70l2 70h-59c-33 0-74 3-91 6-24 5-31 3-31-10z"/><path d="m880 255c0-11 11-15 40-15h40l1-67c2-96 2-97 22-101 15-3 17 7 17 97v101h-60c-47 0-60-3-60-15z"/></g></svg>