<?xml version="1.0" standalone="no"?>
<!DOCTYPE svg PUBLIC "-//W3C//DTD SVG 20010904//EN"
 "http://www.w3.org/TR/2001/REC-SVG-20010904/DTD/svg10.dtd">
<svg version="1.0" xmlns="http://www.w3.org/2000/svg"
 width="247.000000pt" height="56.000000pt" viewBox="0 0 247.000000 56.000000"
 preserveAspectRatio="xMidYMid meet">

<g transform="translate(0.000000,56.000000) scale(0.100000,-0.100000)"
fill="#000000" stroke="none">
<path d="M255 421 c6 -26 2 -32 -25 -46 -27 -14 -31 -20 -25 -43 13 -51 35
-157 35 -171 0 -10 -9 -12 -39 -7 -31 5 -52 0 -103 -24 l-63 -30 143 0 142 0
0 59 c0 32 -5 83 -11 112 -6 30 -13 67 -16 83 -2 16 -9 40 -14 53 l-9 23 160
0 c157 0 159 0 163 -22 3 -17 5 -14 6 10 l1 32 -176 0 -176 0 7 -29z"/>
<path d="M727 424 c-11 -11 -8 -124 2 -124 6 0 11 19 13 43 l3 42 26 -44 26
-44 23 41 c13 23 27 42 31 42 4 0 10 -19 12 -42 2 -31 4 -24 5 25 1 37 -1 67
-5 67 -5 0 -21 -24 -37 -53 -22 -41 -31 -49 -38 -37 -5 8 -19 32 -31 53 -13
21 -26 35 -30 31z"/>
<path d="M1107 423 c-14 -13 -6 -53 12 -63 11 -5 36 -10 56 -10 58 0 38 -24
-23 -28 -29 -2 -52 -8 -52 -13 0 -18 102 -6 114 14 19 29 -4 52 -58 55 -32 2
-46 7 -46 18 0 10 13 14 50 14 28 0 50 5 50 10 0 11 -93 14 -103 3z"/>
<path d="M1271 418 c0 -10 -8 -18 -16 -18 -8 0 -15 -4 -15 -10 0 -5 6 -10 14
-10 10 0 16 -14 19 -42 l4 -43 1 43 c2 35 5 42 22 42 11 0 20 5 20 10 0 6 -9
10 -19 10 -11 0 -22 8 -24 18 -4 16 -5 16 -6 0z"/>
<path d="M1787 412 c-12 -13 -17 -35 -16 -68 1 -27 3 -41 6 -31 3 13 15 17 53
17 38 0 50 -4 53 -17 3 -10 5 12 6 50 l1 67 -43 0 c-30 0 -49 -6 -60 -18z m93
-27 c0 -23 -3 -25 -50 -25 -34 0 -50 4 -50 13 0 23 23 37 62 37 34 0 38 -3 38
-25z"/>
<path d="M900 369 c0 -44 17 -69 45 -69 14 0 25 5 25 10 0 6 -11 10 -25 10
-22 0 -25 4 -25 40 0 22 -4 40 -10 40 -5 0 -10 -14 -10 -31z"/>
<path d="M992 343 c-2 -60 -3 -63 -27 -63 -14 0 -25 -4 -25 -10 0 -15 50 -12
56 4 3 7 3 40 1 72 l-3 59 -2 -62z"/>
<path d="M1354 386 c-3 -8 -4 -29 -2 -48 3 -29 7 -33 36 -36 18 -2 40 2 48 9
17 14 18 61 2 77 -17 17 -77 15 -84 -2z m81 -36 c0 -21 -5 -26 -33 -28 -22 -2
-34 2 -38 12 -12 30 4 47 38 44 28 -2 33 -7 33 -28z"/>
<path d="M1493 393 c-8 -3 -12 -22 -12 -51 l2 -47 6 40 c5 36 9 40 39 43 17 2
32 7 32 13 0 9 -46 11 -67 2z"/>
<path d="M1593 394 c-16 -7 -17 -66 -1 -82 15 -15 58 -16 58 -2 0 6 -13 10
-30 10 -27 0 -30 3 -30 30 0 28 2 30 40 30 22 0 40 -4 40 -10 0 -5 -13 -10
-30 -10 -20 0 -30 -5 -30 -15 0 -19 30 -19 56 -1 15 12 17 18 8 33 -11 18 -57
27 -81 17z"/>
<path d="M1934 387 c-3 -8 -3 -39 -1 -68 l3 -54 2 58 2 57 35 0 c32 0 35 -2
35 -30 0 -25 -4 -30 -25 -30 -14 0 -25 -5 -25 -11 0 -16 52 -6 64 13 7 11 7
26 0 45 -8 23 -16 29 -47 31 -25 2 -39 -1 -43 -11z"/>
<path d="M2064 387 c-3 -8 -3 -39 -1 -68 l3 -54 2 58 2 57 35 0 c32 0 35 -2
35 -30 0 -25 -4 -30 -25 -30 -14 0 -25 -5 -25 -11 0 -16 52 -6 64 13 7 11 7
26 0 45 -8 23 -16 29 -47 31 -25 2 -39 -1 -43 -11z"/>
<path d="M2197 393 c-4 -3 -7 -14 -7 -24 0 -18 19 -29 51 -29 10 0 19 -4 19
-10 0 -5 -16 -10 -35 -10 -19 0 -35 -4 -35 -10 0 -18 69 -11 79 8 13 25 0 43
-40 52 l-34 8 33 1 c17 1 32 6 32 11 0 11 -53 14 -63 3z"/>
<path d="M310 352 c0 -5 11 -19 24 -31 20 -19 39 -23 137 -29 l114 -7 -110 -6
-110 -5 134 -2 133 -2 -31 35 c-17 20 -31 40 -31 45 0 6 -53 10 -130 10 -72 0
-130 -4 -130 -8z"/>
<path d="M353 243 c9 -2 25 -2 35 0 9 3 1 5 -18 5 -19 0 -27 -2 -17 -5z"/>
<path d="M421 203 c0 -29 2 -33 8 -18 7 18 4 55 -5 55 -2 0 -4 -17 -3 -37z"/>
<path d="M581 168 c-1 -32 3 -58 8 -58 5 0 6 21 4 48 -7 70 -11 74 -12 10z"/>
<path d="M520 135 c0 -19 4 -35 8 -35 4 0 6 16 4 35 -2 19 -6 35 -8 35 -2 0
-4 -16 -4 -35z"/>
</g>
</svg>
